# xmcd
#
# Track frame offsets:
#	150
#	18129
#	37677
#	50654
#	72739
#	87212
#	106582
#	126224
#	144681
#	167750
#	183905
#	200922
#
# Disc length: 2935 seconds
#
# Revision: 2
# Processed by: cddbd v1.4PL0 Copyright (c) Steve Scherf et al.
# Submitted via: AudioConverter v4.0 Copyright (c) Dennis Rebentrost
#
DISCID=a30b750c
DTITLE=____ - - ___
DYEAR=1900
DGENRE=
TTITLE0=__ 1 - __y
TTITLE1=__ 2 - __y
TTITLE2=__ 3 - __y
TTITLE3=__ 4 - __y
TTITLE4=__ 5 - __y
TTITLE5=__ 6 - __y
TTITLE6=__ 7 - __y
TTITLE7=__ 8 - __y
TTITLE8=__ 9 - __y
TTITLE9=__ 10 - __y
TTITLE10=__ 11 - __y
TTITLE11=__ 12 - __y
EXTD=
EXTT0=
EXTT1=
EXTT2=
EXTT3=
EXTT4=
EXTT5=
EXTT6=
EXTT7=
EXTT8=
EXTT9=
EXTT10=
EXTT11=
PLAYORDER=
